<?xml version="1.0" encoding="UTF-8"?>
<svg width="1920px" height="1080px" viewBox="0 0 1920 1080" version="1.1" xmlns="http://www.w3.org/2000/svg" xmlns:xlink="http://www.w3.org/1999/xlink">
    <!-- Generator: Sketch 52.4 (67378) - http://www.bohemiancoding.com/sketch -->
    <title>cover</title>
    <desc>Created with Sketch.</desc>
    <defs>
        <path d="M692.048565,170 L1227.95144,170 C1239.09542,170 1243.1365,171.16032 1247.21057,173.339159 C1251.28465,175.517997 1254.482,178.715355 1256.66084,182.789429 C1258.83968,186.863503 1260,190.904581 1260,202.048565 L1260,877.951435 C1260,889.095419 1258.83968,893.136497 1256.66084,897.210571 C1254.482,901.284645 1251.28465,904.482003 1247.21057,906.660841 C1243.1365,908.83968 1239.09542,910 1227.95144,910 L692.048565,910 C680.904581,910 676.863503,908.83968 672.789429,906.660841 C668.715355,904.482003 665.517997,901.284645 663.339159,897.210571 C661.16032,893.136497 660,889.095419 660,877.951435 L660,202.048565 C660,190.904581 661.16032,186.863503 663.339159,182.789429 C665.517997,178.715355 668.715355,175.517997 672.789429,173.339159 C676.863503,171.16032 680.904581,170 692.048565,170 Z" id="path-1"></path>
        <filter x="-13.8%" y="-10.7%" width="127.5%" height="122.3%" filterUnits="objectBoundingBox" id="filter-2">
            <feOffset dx="0" dy="3" in="SourceAlpha" result="shadowOffsetOuter1"></feOffset>
            <feGaussianBlur stdDeviation="27" in="shadowOffsetOuter1" result="shadowBlurOuter1"></feGaussianBlur>
            <feColorMatrix values="0 0 0 0 0   0 0 0 0 0   0 0 0 0 0  0 0 0 0.109658062 0" type="matrix" in="shadowBlurOuter1"></feColorMatrix>
        </filter>
    </defs>
    <g id="cover" stroke="none" stroke-width="1" fill="none" fill-rule="evenodd">
        <rect fill="#FFFFFF" x="0" y="0" width="1920" height="1080"></rect>
        <path d="M1948.88375,462.064039 C1948.87857,450.050168 1955.86729,433.437281 1964.52893,424.923271 L2088.97989,302.593502 C2098.86248,292.879356 2114.87856,292.87295 2124.78307,302.608933 L2249.33949,425.046024 C2257.99259,433.551888 2265.01152,450.209078 2265.01668,462.200292 L2265.0758,599.396887 C2265.08234,614.584682 2252.5622,626.891425 2237.11128,626.884766 L1974.22434,626.771462 C1960.26831,626.765447 1948.94993,615.655668 1948.944,601.905137 L1948.88375,462.064039 Z" id="Combined-Shape-Copy-3" fill="#C47AFC" fill-rule="nonzero" style="mix-blend-mode: multiply;" transform="translate(2106.979774, 461.096094) rotate(215.000000) translate(-2106.979774, -461.096094) "></path>
        <path d="M76.0232359,190.443313 C76.0145301,169.964786 87.8997225,141.646819 102.629846,127.133963 L314.273064,-81.387553 C331.079546,-97.9461422 358.31662,-97.9572457 375.160222,-81.3616597 L586.980812,127.339942 C601.696264,141.838714 613.63257,170.232039 613.641259,190.671945 L613.740679,424.533634 C613.751685,450.422349 592.459741,471.40024 566.183791,471.389066 L119.116296,471.198942 C95.3825702,471.188849 76.1345364,452.251544 76.124572,428.812752 L76.0232359,190.443313 Z" id="Combined-Shape-Copy-8" fill="#FD61D4" fill-rule="nonzero" opacity="0.99000001" style="mix-blend-mode: multiply;" transform="translate(344.881957, 188.790824) rotate(34.000000) translate(-344.881957, -188.790824) "></path>
        <path d="M1718.03801,693.865335 C1718.0359,681.555733 1725.2022,664.532049 1734.08072,655.806159 L1861.6479,530.432086 C1871.77795,520.476193 1888.19089,520.465377 1898.33823,530.438392 L2025.94848,655.85632 C2034.81373,664.569267 2042.00215,681.634626 2042.00426,693.921013 L2042.0284,834.494818 C2042.03107,850.056474 2029.19743,862.669482 2013.36366,862.666761 L1743.96276,862.620461 C1729.66092,862.618003 1718.06504,851.237752 1718.06262,837.14874 L1718.03801,693.865335 Z" id="Combined-Shape-Copy-3" fill="#FD61D4" fill-rule="nonzero" style="mix-blend-mode: multiply;" transform="translate(1880.033206, 692.814330) rotate(191.000000) translate(-1880.033206, -692.814330) "></path>
        <path d="M303.779218,652.597478 C303.776594,642.866799 309.471755,629.410223 316.528598,622.513146 L417.921709,523.415564 C425.973285,515.546274 439.019878,515.53901 447.086732,523.423422 L548.533301,622.57566 C555.580927,629.463896 561.296288,642.954539 561.298907,652.666867 L561.328871,763.789755 C561.332189,776.091166 551.131737,786.060681 538.545525,786.05729 L324.39965,785.999588 C313.031166,785.996525 303.812763,776.999585 303.80976,765.862291 L303.779218,652.597478 Z" id="Combined-Shape-Copy-11" fill="#F6A960" fill-rule="nonzero" opacity="0.99000001" style="mix-blend-mode: multiply;" transform="translate(432.554045, 651.784573) rotate(432.000000) translate(-432.554045, -651.784573) "></path>
        <path d="M1004.68615,803.699613 C1004.6744,776.739024 1020.36341,739.457769 1039.80814,720.351398 L1319.19102,445.830004 C1341.37668,424.030398 1377.33174,424.016214 1399.56682,445.865064 L1679.18924,720.630299 C1698.61497,739.718598 1714.3722,777.099443 1714.38393,804.009186 L1714.51819,1111.89505 C1714.53306,1145.97831 1686.4263,1173.59599 1651.73999,1173.58086 L1061.57599,1173.32342 C1030.24561,1173.30976 1004.83646,1148.37793 1004.82301,1117.52006 L1004.68615,803.699613 Z" id="Combined-Shape-Copy-9" fill="#F6A960" fill-rule="nonzero" style="mix-blend-mode: multiply;" transform="translate(1359.602174, 801.530112) rotate(576.000000) translate(-1359.602174, -801.530112) "></path>
        <path d="M-135.638347,588.337362 C-135.634797,574.485509 -127.567328,555.3255 -117.578268,545.502077 L25.9451017,404.358597 C37.3422207,393.150464 55.800344,393.130383 67.2073185,404.348012 L210.658345,545.417872 C220.624075,555.218179 228.70001,574.418167 228.696466,588.243897 L228.655916,746.429974 C228.651428,763.941326 214.212545,778.140784 196.40577,778.145352 L-106.564453,778.223075 C-122.648405,778.227202 -135.683743,765.426723 -135.679679,749.572521 L-135.638347,588.337362 Z" id="Combined-Shape-Copy-2" fill="#00FFB4" fill-rule="nonzero" opacity="0.99000001" style="mix-blend-mode: multiply;" transform="translate(46.508394, 587.083358) rotate(163.000000) translate(-46.508394, -587.083358) "></path>
        <path d="M1727.49942,128.491073 C1727.49942,125.988016 1728.93623,122.526137 1730.71591,120.751488 L1756.28643,95.2532315 C1758.31697,93.2284277 1761.60635,93.2256547 1763.63968,95.2532315 L1789.2102,120.751488 C1790.98662,122.522885 1792.42669,125.992736 1792.42669,128.491073 L1792.42669,157.075613 C1792.42669,160.239949 1789.85422,162.80515 1786.68091,162.80515 L1732.68929,162.80515 C1729.823,162.80515 1727.49942,160.491474 1727.49942,157.626588 L1727.49942,128.491073 Z" id="Combined-Shape-Copy-10" fill="#00FFB4" fill-rule="nonzero" style="mix-blend-mode: multiply;" transform="translate(1759.963053, 128.269369) rotate(321.000000) translate(-1759.963053, -128.269369) "></path>
        <g id="Rectangle">
            <use fill="black" fill-opacity="1" filter="url(#filter-2)" xlink:href="#path-1"></use>
            <use fill="#FFFFFF" fill-rule="evenodd" xlink:href="#path-1"></use>
        </g>
        <path d="M739.229139,230 L1180.77086,230 C1187.45725,230 1189.8819,230.696192 1192.32634,232.003495 C1194.77079,233.310798 1196.6892,235.229213 1197.9965,237.673657 C1199.30381,240.118102 1200,242.542748 1200,249.229139 L1200,290.770861 C1200,297.457252 1199.30381,299.881898 1197.9965,302.326343 C1196.6892,304.770787 1194.77079,306.689202 1192.32634,307.996505 C1189.8819,309.303808 1187.45725,310 1180.77086,310 L739.229139,310 C732.542748,310 730.118102,309.303808 727.673657,307.996505 C725.229213,306.689202 723.310798,304.770787 722.003495,302.326343 C720.696192,299.881898 720,297.457252 720,290.770861 L720,249.229139 C720,242.542748 720.696192,240.118102 722.003495,237.673657 C723.310798,235.229213 725.229213,233.310798 727.673657,232.003495 C730.118102,230.696192 732.542748,230 739.229139,230 Z" id="Rectangle" fill="#000000" opacity="0.049999997"></path>
        <path d="M739.229139,330 L1180.77086,330 C1187.45725,330 1189.8819,330.696192 1192.32634,332.003495 C1194.77079,333.310798 1196.6892,335.229213 1197.9965,337.673657 C1199.30381,340.118102 1200,342.542748 1200,349.229139 L1200,390.770861 C1200,397.457252 1199.30381,399.881898 1197.9965,402.326343 C1196.6892,404.770787 1194.77079,406.689202 1192.32634,407.996505 C1189.8819,409.303808 1187.45725,410 1180.77086,410 L739.229139,410 C732.542748,410 730.118102,409.303808 727.673657,407.996505 C725.229213,406.689202 723.310798,404.770787 722.003495,402.326343 C720.696192,399.881898 720,397.457252 720,390.770861 L720,349.229139 C720,342.542748 720.696192,340.118102 722.003495,337.673657 C723.310798,335.229213 725.229213,333.310798 727.673657,332.003495 C730.118102,330.696192 732.542748,330 739.229139,330 Z" id="Rectangle" fill="#000000" opacity="0.049999997"></path>
        <path d="M739.229139,430 L1180.77086,430 C1187.45725,430 1189.8819,430.696192 1192.32634,432.003495 C1194.77079,433.310798 1196.6892,435.229213 1197.9965,437.673657 C1199.30381,440.118102 1200,442.542748 1200,449.229139 L1200,730.770861 C1200,737.457252 1199.30381,739.881898 1197.9965,742.326343 C1196.6892,744.770787 1194.77079,746.689202 1192.32634,747.996505 C1189.8819,749.303808 1187.45725,750 1180.77086,750 L739.229139,750 C732.542748,750 730.118102,749.303808 727.673657,747.996505 C725.229213,746.689202 723.310798,744.770787 722.003495,742.326343 C720.696192,739.881898 720,737.457252 720,730.770861 L720,449.229139 C720,442.542748 720.696192,440.118102 722.003495,437.673657 C723.310798,435.229213 725.229213,433.310798 727.673657,432.003495 C730.118102,430.696192 732.542748,430 739.229139,430 Z" id="Rectangle" fill="#000000" opacity="0.049999997"></path>
        <path d="M740.229139,780 L1180.77086,780 C1187.45725,780 1189.8819,780.696192 1192.32634,782.003495 C1194.77079,783.310798 1196.6892,785.229213 1197.9965,787.673657 C1199.30381,790.118102 1200,792.542748 1200,799.229139 L1200,830.770861 C1200,837.457252 1199.30381,839.881898 1197.9965,842.326343 C1196.6892,844.770787 1194.77079,846.689202 1192.32634,847.996505 C1189.8819,849.303808 1187.45725,850 1180.77086,850 L740.229139,850 C733.542748,850 731.118102,849.303808 728.673657,847.996505 C726.229213,846.689202 724.310798,844.770787 723.003495,842.326343 C721.696192,839.881898 721,837.457252 721,830.770861 L721,799.229139 C721,792.542748 721.696192,790.118102 723.003495,787.673657 C724.310798,785.229213 726.229213,783.310798 728.673657,782.003495 C731.118102,780.696192 733.542748,780 740.229139,780 Z" id="Rectangle" fill="#C67DFD"></path>
        <text id="View-on-the-web" font-family="LotaGrotesque-Bold, Lota Grotesque" font-size="28" font-weight="bold" letter-spacing="1.25" fill="#FFFFFF">
            <tspan x="829.227" y="824">VIEW ON THE WEB</tspan>
        </text>
    </g>
</svg>